<mxfile host="app.diagrams.net" modified="2021-03-17T03:16:55.465Z" agent="5.0 (Macintosh; Intel Mac OS X 10_15_6) AppleWebKit/605.1.15 (KHTML, like Gecko) Version/14.0.3 Safari/605.1.15" etag="js_Dr6i-xCK_EBKkT7RJ" version="14.4.4" type="github">
  <diagram id="SJxPcIHg1eOP5DIut9p_" name="Page-1">
    <mxGraphModel dx="1288" dy="754" grid="1" gridSize="10" guides="1" tooltips="1" connect="1" arrows="1" fold="1" page="1" pageScale="1" pageWidth="850" pageHeight="1100" math="0" shadow="0">
      <root>
        <mxCell id="0" />
        <mxCell id="1" parent="0" />
        <mxCell id="1vJymIaKMRr7Fv7zbhKh-1" value="" style="whiteSpace=wrap;html=1;aspect=fixed;" vertex="1" parent="1">
          <mxGeometry x="330" y="80" width="170" height="170" as="geometry" />
        </mxCell>
        <mxCell id="1vJymIaKMRr7Fv7zbhKh-2" value="" style="whiteSpace=wrap;html=1;aspect=fixed;" vertex="1" parent="1">
          <mxGeometry x="20" y="80" width="180" height="180" as="geometry" />
        </mxCell>
        <mxCell id="1vJymIaKMRr7Fv7zbhKh-3" value="" style="whiteSpace=wrap;html=1;aspect=fixed;" vertex="1" parent="1">
          <mxGeometry x="630" y="80" width="170" height="170" as="geometry" />
        </mxCell>
        <mxCell id="1vJymIaKMRr7Fv7zbhKh-4" value="" style="whiteSpace=wrap;html=1;aspect=fixed;" vertex="1" parent="1">
          <mxGeometry x="320" y="350" width="180" height="180" as="geometry" />
        </mxCell>
        <mxCell id="1vJymIaKMRr7Fv7zbhKh-5" value="" style="whiteSpace=wrap;html=1;aspect=fixed;" vertex="1" parent="1">
          <mxGeometry x="300" y="590" width="200" height="200" as="geometry" />
        </mxCell>
        <mxCell id="1vJymIaKMRr7Fv7zbhKh-6" value="" style="whiteSpace=wrap;html=1;aspect=fixed;" vertex="1" parent="1">
          <mxGeometry x="290" y="840" width="230" height="230" as="geometry" />
        </mxCell>
        <mxCell id="1vJymIaKMRr7Fv7zbhKh-7" value="Antibi&lt;br&gt;Incorporated&lt;br&gt;Backend" style="text;html=1;strokeColor=none;fillColor=none;align=center;verticalAlign=middle;whiteSpace=wrap;rounded=0;" vertex="1" parent="1">
          <mxGeometry x="340" y="120" width="140" height="100" as="geometry" />
        </mxCell>
        <mxCell id="1vJymIaKMRr7Fv7zbhKh-11" style="edgeStyle=orthogonalEdgeStyle;rounded=0;orthogonalLoop=1;jettySize=auto;html=1;entryX=0.006;entryY=0.582;entryDx=0;entryDy=0;entryPerimeter=0;" edge="1" parent="1" source="1vJymIaKMRr7Fv7zbhKh-8" target="1vJymIaKMRr7Fv7zbhKh-1">
          <mxGeometry relative="1" as="geometry" />
        </mxCell>
        <mxCell id="1vJymIaKMRr7Fv7zbhKh-8" value="Hybrid Model&lt;br&gt;&lt;br&gt;has_many :comments" style="text;html=1;strokeColor=none;fillColor=none;align=center;verticalAlign=middle;whiteSpace=wrap;rounded=0;" vertex="1" parent="1">
          <mxGeometry x="40" y="130" width="150" height="80" as="geometry" />
        </mxCell>
        <mxCell id="1vJymIaKMRr7Fv7zbhKh-9" value="Comment Model&lt;br&gt;&lt;br&gt;belongs_to :hybrid&amp;nbsp;" style="text;html=1;strokeColor=none;fillColor=none;align=center;verticalAlign=middle;whiteSpace=wrap;rounded=0;" vertex="1" parent="1">
          <mxGeometry x="610" y="90" width="200" height="140" as="geometry" />
        </mxCell>
        <mxCell id="1vJymIaKMRr7Fv7zbhKh-10" value="" style="endArrow=none;html=1;exitX=0.5;exitY=0;exitDx=0;exitDy=0;entryX=0.465;entryY=1.006;entryDx=0;entryDy=0;entryPerimeter=0;" edge="1" parent="1" source="1vJymIaKMRr7Fv7zbhKh-4" target="1vJymIaKMRr7Fv7zbhKh-1">
          <mxGeometry width="50" height="50" relative="1" as="geometry">
            <mxPoint x="375" y="300" as="sourcePoint" />
            <mxPoint x="425" y="250" as="targetPoint" />
          </mxGeometry>
        </mxCell>
        <mxCell id="1vJymIaKMRr7Fv7zbhKh-12" value="" style="endArrow=none;html=1;exitX=1;exitY=0.5;exitDx=0;exitDy=0;" edge="1" parent="1" source="1vJymIaKMRr7Fv7zbhKh-1">
          <mxGeometry width="50" height="50" relative="1" as="geometry">
            <mxPoint x="580" y="220" as="sourcePoint" />
            <mxPoint x="630" y="170" as="targetPoint" />
          </mxGeometry>
        </mxCell>
        <mxCell id="1vJymIaKMRr7Fv7zbhKh-13" value="" style="endArrow=none;html=1;entryX=0.5;entryY=1;entryDx=0;entryDy=0;exitX=0.545;exitY=0;exitDx=0;exitDy=0;exitPerimeter=0;" edge="1" parent="1" source="1vJymIaKMRr7Fv7zbhKh-5" target="1vJymIaKMRr7Fv7zbhKh-4">
          <mxGeometry width="50" height="50" relative="1" as="geometry">
            <mxPoint x="370" y="580" as="sourcePoint" />
            <mxPoint x="420" y="530" as="targetPoint" />
          </mxGeometry>
        </mxCell>
        <mxCell id="1vJymIaKMRr7Fv7zbhKh-14" value="" style="endArrow=none;html=1;exitX=0.5;exitY=0;exitDx=0;exitDy=0;" edge="1" parent="1" source="1vJymIaKMRr7Fv7zbhKh-6">
          <mxGeometry width="50" height="50" relative="1" as="geometry">
            <mxPoint x="370" y="840" as="sourcePoint" />
            <mxPoint x="405" y="790" as="targetPoint" />
          </mxGeometry>
        </mxCell>
        <mxCell id="1vJymIaKMRr7Fv7zbhKh-15" value="Antibi&lt;br&gt;Incorporated&lt;br&gt;Frontend" style="text;html=1;strokeColor=none;fillColor=none;align=center;verticalAlign=middle;whiteSpace=wrap;rounded=0;" vertex="1" parent="1">
          <mxGeometry x="310" y="370" width="190" height="140" as="geometry" />
        </mxCell>
        <mxCell id="1vJymIaKMRr7Fv7zbhKh-16" value="Hybrids Form&amp;nbsp;&lt;br&gt;and Index Page" style="text;html=1;strokeColor=none;fillColor=none;align=center;verticalAlign=middle;whiteSpace=wrap;rounded=0;" vertex="1" parent="1">
          <mxGeometry x="300" y="590" width="200" height="200" as="geometry" />
        </mxCell>
        <mxCell id="1vJymIaKMRr7Fv7zbhKh-17" value="Hybrids Show Page&lt;br&gt;Where a User&amp;nbsp;&lt;br&gt;can leave&lt;br&gt;comments about&lt;br&gt;the whereabouts of&lt;br&gt;the Hybrid" style="text;html=1;strokeColor=none;fillColor=none;align=center;verticalAlign=middle;whiteSpace=wrap;rounded=0;" vertex="1" parent="1">
          <mxGeometry x="290" y="840" width="230" height="230" as="geometry" />
        </mxCell>
      </root>
    </mxGraphModel>
  </diagram>
</mxfile>
